<?xml version="1.0" standalone="no"?>
<!DOCTYPE svg PUBLIC "-//W3C//DTD SVG 20010904//EN"
 "http://www.w3.org/TR/2001/REC-SVG-20010904/DTD/svg10.dtd">
<svg version="1.0" xmlns="http://www.w3.org/2000/svg"
 width="500.000000pt" height="500.000000pt" viewBox="0 0 500.000000 500.000000"
 preserveAspectRatio="xMidYMid meet">
<metadata>
Created by potrace 1.14, written by Peter Selinger 2001-2017
</metadata>
<g transform="translate(0.000000,500.000000) scale(0.100000,-0.100000)"
fill="#000000" stroke="none">
<path d="M1855 4301 c-2 -2 -129 -4 -282 -5 l-278 -2 0 -1743 c0 -1157 3
-1745 10 -1746 46 -14 884 -24 1005 -13 454 43 915 264 1141 548 185 232 318
598 346 955 12 159 6 448 -12 585 -13 99 -26 172 -40 235 -9 39 -18 79 -20 89
-27 122 -129 350 -212 474 -71 104 -213 249 -314 319 -91 62 -297 170 -359
188 -3 1 -50 16 -105 33 -113 35 -232 59 -400 78 -62 7 -474 12 -480 5z m344
-51 c162 -6 269 -36 470 -133 178 -86 329 -216 426 -366 115 -178 230 -503
261 -734 2 -17 6 -48 9 -67 28 -205 28 -598 0 -830 -36 -293 -147 -608 -274
-780 -53 -71 -67 -87 -149 -167 -93 -93 -176 -155 -272 -205 -58 -30 -179 -80
-205 -84 -5 -1 -30 -7 -55 -14 -25 -7 -58 -14 -75 -17 -16 -2 -47 -8 -68 -13
-41 -9 -486 -11 -530 -3 l-27 5 0 1698 c0 1609 1 1698 18 1702 9 2 57 5 107 7
49 1 91 3 92 5 2 2 156 0 272 -4z"/>
</g>
</svg>
